<?xml version="1.0" encoding="utf-8"?>
<!-- Generator: Adobe Illustrator 24.3.0, SVG Export Plug-In . SVG Version: 6.00 Build 0)  -->
<svg version="1.1" id="Calque_1" xmlns="http://www.w3.org/2000/svg" xmlns:xlink="http://www.w3.org/1999/xlink" x="0px" y="0px"
	 viewBox="0 0 475.2 692.6" style="enable-background:new 0 0 475.2 692.6;" xml:space="preserve">
<style type="text/css">
	.st0{fill:#1D1D1B;}
</style>
<g>
	<path class="st0" d="M381.2,610.7h-20.4v30h20.8v-5.1h-15v-7.8h12.6v-4.7h-12.6v-7.2h14.6V610.7z M379.6,482.7h-20.5v30H380v-5.1
		h-15v-7.8h12.6V495H365v-7.2h14.6V482.7z M367.7,479.1l3.6,1.1l3.9-6.1H370L367.7,479.1z M350.3,610.7h-5.8v30h5.8V610.7z
		 M341.2,512.7v-24.9h9.6v-5.1h-25v5.1h9.6v24.9H341.2z M315.8,615.8h5.1c1.4,0,2.7,0.2,3.8,0.7c1.1,0.5,2.1,1.1,2.8,2
		c0.8,0.9,1.3,1.9,1.7,3.1c0.4,1.2,0.6,2.5,0.6,4c0,1.4-0.2,2.7-0.6,3.9c-0.4,1.2-1,2.3-1.7,3.2c-0.8,0.9-1.7,1.6-2.8,2.1
		c-1.1,0.5-2.4,0.8-3.8,0.8h-5.1V615.8z M320.9,610.7H310v30h10.9c2.3,0,4.3-0.4,6.1-1.1c1.8-0.7,3.4-1.7,4.7-3
		c1.3-1.3,2.3-2.9,3-4.7c0.7-1.8,1-3.9,1-6.2c0-2.1-0.3-4-0.9-5.8c-0.6-1.8-1.6-3.4-2.8-4.8c-1.3-1.4-2.8-2.4-4.6-3.2
		C325.5,611.1,323.3,610.7,320.9,610.7 M311.7,512.7h5.8v-30h-5.8V512.7z M299.3,511c1-0.7,1.8-1.6,2.4-2.8c0.6-1.2,0.9-2.5,0.9-4.1
		c0-1.4-0.2-2.5-0.7-3.5c-0.5-0.9-1.1-1.8-1.9-2.4c-0.8-0.7-1.8-1.2-3-1.7c-1.2-0.5-2.5-0.9-4-1.3c-1.1-0.3-2.1-0.5-3-0.8
		c-0.9-0.3-1.6-0.5-2.1-0.8c-0.6-0.3-1-0.7-1.3-1.1c-0.3-0.4-0.4-0.9-0.4-1.5c0-1.1,0.4-1.9,1.2-2.5c0.8-0.6,2-0.9,3.6-0.9
		c0.9,0,1.8,0.1,2.7,0.3c0.9,0.2,1.7,0.5,2.4,0.8c0.8,0.3,1.4,0.6,1.9,1c0.5,0.3,0.9,0.6,1.1,0.8l2.6-4.7c-1.3-0.9-2.9-1.7-4.7-2.3
		c-1.8-0.7-3.7-1-5.8-1c-1.5,0-2.9,0.2-4.3,0.6c-1.3,0.4-2.5,1-3.5,1.8c-1,0.8-1.8,1.8-2.3,3c-0.6,1.2-0.8,2.5-0.8,4.1
		c0,1.2,0.2,2.2,0.5,3c0.4,0.8,0.9,1.6,1.6,2.2c0.7,0.6,1.6,1.2,2.7,1.7c1.1,0.5,2.3,0.9,3.7,1.3c1.2,0.3,2.3,0.6,3.2,0.9
		c1,0.3,1.8,0.6,2.5,0.9c0.7,0.3,1.2,0.7,1.6,1.2c0.4,0.4,0.6,1,0.6,1.6c0,2.1-1.6,3.1-4.8,3.1c-1.2,0-2.3-0.1-3.4-0.4
		c-1.1-0.3-2.1-0.6-3-1c-0.9-0.4-1.7-0.8-2.3-1.2c-0.7-0.4-1.1-0.7-1.4-1l-2.6,5c1.7,1.2,3.7,2.2,5.9,2.9c2.2,0.7,4.4,1,6.7,1
		c1.5,0,2.9-0.2,4.2-0.5C297,512.2,298.2,511.7,299.3,511 M278,610.7h-4.5v30h5.8v-19.2l15.4,19.2h4.7v-30h-5.8v19.7L278,610.7z
		 M261.5,497.5h-7.3v-9.7h7.1c0.5,0,1,0.1,1.5,0.4c0.5,0.2,0.9,0.6,1.3,1c0.4,0.4,0.7,1,0.9,1.5c0.2,0.6,0.3,1.2,0.3,1.9
		c0,0.7-0.1,1.3-0.3,1.9c-0.2,0.6-0.5,1.1-0.8,1.5c-0.3,0.4-0.8,0.8-1.2,1C262.5,497.4,262,497.5,261.5,497.5 M259.9,502.6l6.1,10.1
		h6.6l-6.8-11.3c1.7-0.7,3-1.9,3.9-3.4c1-1.6,1.5-3.4,1.5-5.3c0-1.2-0.2-2.4-0.7-3.6c-0.5-1.2-1.1-2.3-2-3.2c-0.8-0.9-1.9-1.7-3-2.3
		c-1.2-0.6-2.4-0.9-3.8-0.9h-13.3v30h5.8v-10.1H259.9z M247.7,629.1l4.3-11.8l4.1,11.8H247.7z M249.4,610.7l-11.5,30h6l2.7-7.5h10.5
		l2.8,7.5h6l-11.4-30H249.4z M224.2,507.6v-7.8h12.6V495h-12.6v-7.2h14.6v-5.1h-20.5v30h20.8v-5.1H224.2z M206.4,610.7h-6.3v30h5.8
		v-19.9l7.7,14.8h3.2l7.7-14.8v19.9h5.8v-30h-6.2l-9,17.1L206.4,610.7z M199.8,546.7h-4.5v30h5.8v-19.2l15.4,19.2h4.7v-30h-5.8v19.6
		L199.8,546.7z M182.1,482.7l11.8,30h4.9l11.7-30h-6.1l-8,22.7l-8.1-22.7H182.1z M180.7,615.8c0.5,0,1,0.1,1.5,0.4
		c0.5,0.2,0.9,0.6,1.3,1c0.4,0.4,0.7,1,0.9,1.5c0.2,0.6,0.3,1.2,0.3,1.9c0,0.7-0.1,1.3-0.3,1.9c-0.2,0.6-0.5,1.1-0.8,1.5
		c-0.3,0.4-0.7,0.8-1.2,1c-0.5,0.3-1,0.4-1.5,0.4h-7.3v-9.7H180.7z M181.1,610.7h-13.3v30h5.8v-10.1h5.7l6.1,10.1h6.5l-6.8-11.3
		c1.7-0.7,3-1.9,4-3.5c1-1.6,1.5-3.4,1.5-5.3c0-1.2-0.2-2.4-0.7-3.6c-0.5-1.2-1.2-2.3-2-3.2c-0.8-1-1.9-1.7-3-2.3
		C183.7,611,182.4,610.7,181.1,610.7 M184.4,546.7h-20.5v30h20.8v-5.1h-15v-7.8h12.6V559h-12.6v-7.2h14.6V546.7z M168.4,512.7h5.8
		v-30h-5.8V512.7z M135.7,625.7c0-1.2,0.2-2.5,0.6-3.7c0.4-1.2,0.9-2.3,1.7-3.2c0.7-0.9,1.6-1.7,2.7-2.3c1.1-0.6,2.4-0.9,3.8-0.9
		c1.4,0,2.6,0.3,3.7,0.8c1.1,0.6,2,1.3,2.7,2.2c0.7,0.9,1.3,2,1.7,3.2c0.4,1.2,0.6,2.5,0.6,3.8c0,1.2-0.2,2.5-0.6,3.7
		c-0.4,1.2-0.9,2.3-1.7,3.2c-0.8,1-1.7,1.7-2.7,2.3c-1.1,0.6-2.3,0.9-3.7,0.9c-1.4,0-2.6-0.3-3.7-0.8c-1.1-0.6-2-1.3-2.8-2.2
		c-0.7-0.9-1.3-2-1.7-3.2C135.9,628.3,135.7,627,135.7,625.7 M130.9,620c-0.7,1.8-1.1,3.7-1.1,5.7c0,1.9,0.4,3.8,1.1,5.6
		c0.7,1.8,1.7,3.5,3,4.9c1.3,1.4,2.8,2.6,4.6,3.4c1.8,0.9,3.8,1.3,6,1.3c2.1,0,4.1-0.4,5.9-1.2c1.8-0.8,3.4-2,4.6-3.3
		c1.3-1.4,2.3-3,3-4.8c0.7-1.8,1.1-3.7,1.1-5.7c0-1.9-0.4-3.7-1.1-5.6c-0.7-1.8-1.7-3.5-3-4.9c-1.3-1.4-2.8-2.6-4.6-3.5
		c-1.8-0.9-3.8-1.3-5.9-1.3c-2.1,0-4.1,0.4-5.9,1.3c-1.8,0.8-3.4,1.9-4.7,3.4C132.7,616.5,131.7,618.1,130.9,620 M151.6,482.7v19.6
		L136,482.7h-4.5v30h5.8v-19.2l15.4,19.2h4.7v-30H151.6z M136.4,565.1l4.3-11.8l4.1,11.8H136.4z M138.2,546.7l-11.4,30h6l2.7-7.5
		h10.5l2.8,7.5h6l-11.4-30H138.2z M99.7,610.7h-4.5v30h5.8v-19.2l15.4,19.2h4.7v-30h-5.8v19.7L99.7,610.7z M115.2,482.7V498
		c0,1.2-0.1,2.4-0.4,3.6c-0.2,1.2-0.6,2.2-1.2,3.1c-0.6,0.9-1.3,1.6-2.3,2.2c-0.9,0.6-2.1,0.8-3.5,0.8c-1.4,0-2.5-0.3-3.4-0.8
		c-0.9-0.6-1.7-1.3-2.3-2.2c-0.6-0.9-1-1.9-1.2-3.1c-0.2-1.2-0.4-2.4-0.4-3.7v-15.3h-5.8V498c0,2,0.2,3.8,0.7,5.6s1.2,3.4,2.3,4.8
		c1,1.4,2.4,2.5,4.1,3.3c1.7,0.8,3.7,1.2,6.1,1.2c2.3,0,4.3-0.4,6-1.2c1.7-0.8,3-1.9,4.1-3.2c1.1-1.4,1.8-2.9,2.3-4.7
		c0.5-1.8,0.7-3.7,0.7-5.8v-15.3H115.2z M94.3,556.1c-0.7,1.8-1,3.6-1,5.4c0,1.9,0.4,3.8,1.1,5.6c0.7,1.8,1.7,3.5,3,4.9
		c1.3,1.5,2.8,2.6,4.6,3.5c1.8,0.9,3.7,1.4,5.9,1.4c1.2,0,2.5-0.2,3.7-0.5c1.3-0.3,2.5-0.8,3.6-1.3c1.1-0.6,2.1-1.3,3-2.2
		c0.9-0.9,1.6-1.9,2-3l-4.8-2.7c-0.3,0.8-0.8,1.5-1.4,2.1c-0.6,0.6-1.2,1.1-1.8,1.4c-0.7,0.4-1.4,0.6-2.1,0.8
		c-0.7,0.2-1.4,0.2-2.1,0.2c-1.3,0-2.5-0.3-3.6-0.8c-1.1-0.6-2-1.3-2.8-2.2c-0.8-0.9-1.4-2-1.8-3.2c-0.4-1.2-0.6-2.5-0.6-3.8
		c0-1.2,0.2-2.4,0.5-3.6c0.4-1.2,0.9-2.3,1.6-3.2c0.7-0.9,1.6-1.7,2.7-2.3c1.1-0.6,2.4-0.9,3.8-0.9c0.7,0,1.4,0.1,2.1,0.2
		c0.7,0.1,1.4,0.4,2,0.7c0.7,0.3,1.3,0.8,1.8,1.4c0.6,0.6,1,1.3,1.4,2.1l4.5-3.1c-1-1.9-2.5-3.5-4.5-4.7c-2-1.2-4.4-1.8-7.2-1.8
		c-2.3,0-4.4,0.4-6.3,1.3c-1.8,0.9-3.4,2-4.7,3.4C96,552.7,95,554.3,94.3,556.1 M380,263.2L380,263.2C380,263.2,380,263.2,380,263.2
		c0,1.3-1,2.2-2.2,2.2c-0.5,0-1.2-0.1-1.8-0.7L333.4,217c-0.4-0.4-0.6-0.9-0.6-1.5c0-1.2,1-2.1,2.1-2.1h6c0.7,0,1.3,0.3,1.7,0.9
		l29,33v-31.8c0-1.2,1-2.1,2.1-2.1h4.2c1.2,0,2.1,0.9,2.1,2.1V263.2z M316.8,261.7c0,1.2-0.9,2.1-2.1,2.1H283
		c-1.2,0-2.1-0.9-2.1-2.1v-4.2c0-1.2,1-2.1,2.1-2.1h31.7c1.2,0,2.1,0.9,2.1,2.1V261.7z M316.8,240.6c0,1.2-0.9,2.1-2.1,2.1H283
		c-1.2,0-2.1-0.9-2.1-2.1v-4.2c0-1.2,1-2.1,2.1-2.1h31.7c1.2,0,2.1,1,2.1,2.1V240.6z M316.8,219.4c0,1.2-0.9,2.1-2.1,2.1H283
		c-1.2,0-2.1-0.9-2.1-2.1v-4.2c0-1.2,1-2.1,2.1-2.1h31.7c1.2,0,2.1,1,2.1,2.1V219.4z M270,261.8c0.1,1.2-0.9,1.9-2.1,1.9h-5.3
		c-1.2,0-1.7-0.7-2.1-1.7c0,0-23.6-42.2-23.8-42.7c-0.2-0.3-0.3-0.7-0.3-1.2s0.3-1.1,0.3-1.1l2.3-4.8c0.3-0.8,1.1-1.4,2-1.4h0.1h0.1
		c0.9,0,1.7,0.6,2,1.4l26.6,48.4C269.7,260.7,270,261.4,270,261.8 M249.8,188.3c0.2,1.2-1,2.2-2.1,2.2c0,0,0,0,0,0h-2.5
		c-13.7,0-24.1,4.2-32.8,12.3c-8.1,7.5-13.7,17.2-15.2,29.2h0c0,1.2-1,2.2-2.2,2.2h-5c-1.2,0-2.2-1-2.2-2.1v0v0h0
		c1.6-14.1,8.3-26.4,18.3-35.6c10.3-9.4,23.7-14.6,38.3-14.6l1.1,0h1.4c1.2,0,2,0.7,2.3,2.2L249.8,188.3z M175.5,212.8
		c0,1.2-0.9,2.1-2.1,2.1h-5.6c-1.2,0-2.1-0.9-2.1-2.1v-4.2c0-1.2,0.9-2.1,2.1-2.1h5.6c1.2,0,2.1,1,2.1,2.1V212.8z M137.4,214.1
		l29,33.1V227c0-1.2,1-2.1,2.1-2.1h4.2c1.2,0,2.1,1,2.1,2.1V263v0c0,0,0,0.1,0,0.1c0,1.2-1,2.2-2.2,2.2c-0.5,0-1.2-0.1-1.8-0.8
		l-42.6-47.7c-0.4-0.4-0.6-0.9-0.6-1.5c0-1.2,1-2.1,2.1-2.1h6C136.4,213.2,137,213.5,137.4,214.1 M115.6,256.1
		c4.7,0,9.1-1.5,12.7-4.1l0-16.3c0-0.1,0-0.1,0-0.2c0-0.2,0-0.3,0-0.4c0.2-1,1-1.7,2.1-1.7c0,0,0,0,0,0c0.7,0,1.3,0.3,1.7,0.8
		l3.9,4.5c0.5,0.4,0.8,1,0.8,1.7l0,14.8c0,0,0.2,0.8-0.7,1.6c-5.4,4.9-12.6,7.9-20.4,7.9c-11.7,0-21.2-9.5-21.2-20.7v-28.2
		c0-1.6,0.9-2.5,2.1-2.5h4.2c1.2,0,2.1,1,2.1,2.1v28.2C102.9,250.4,108.6,256.1,115.6,256.1 M248.2,260.2c0.5,0.7,0.7,1.7,0.2,2.6
		c-0.5,0.9-1.2,1.1-2,1h-29.6c-0.7,0-1.6,0-2-0.3c-1-0.6-0.7-1.8-0.2-2.9l14.1-28.5c0.3-0.8,1.2-1.4,2.2-1.4s1.5,0.6,1.9,1.4
		l2.5,4.2c0,0,0.4,1.3,0.4,1.7c0,0.4-0.1,0.8-0.4,1.2c-0.2,0.3-5.3,10.6-8.2,16.3h17c0.4-0.1,0.8,0.1,1.2,0.3
		c0.4,0.2,0.8,0.9,0.8,0.9L248.2,260.2L248.2,260.2z M187.7,244.7L187.7,244.7c0-1.2,1-2.1,2.2-2.1h5c1.2,0,2.2,1,2.2,2.2h0
		c1.5,11.9,7.1,22.2,15.2,29.7c8.8,8,18.5,11.8,32.1,11.8h2.5c0,0,0,0,0,0c1.2,0,2.3,1,2.1,2.2l-0.7,4.3c-0.2,1.4-1.1,2.2-2.3,2.2
		h-1.4h-0.4c-14.5,0-28-5.2-38.3-14.6C196,271.1,189.3,258.8,187.7,244.7L187.7,244.7L187.7,244.7L187.7,244.7z M333.4,236.1
		c0-0.2,0-0.3,0.1-0.4c0.2-1,1-1.7,2.1-1.7c0,0,0,0,0.1,0c0.7,0,1.3,0.3,1.7,0.8l3.8,4.5c0.5,0.4,0.8,1,0.8,1.7V262
		c0,1.2-1,2.1-2.1,2.1h-4.2c-1.2,0-2.1-1-2.1-2.1v-25.8C333.4,236.2,333.4,236.1,333.4,236.1 M427.7,242.5
		C427.7,137.3,342.4,52,237.2,52C132,52,46.7,137.3,46.7,242.5c0,105.2,85.3,190.5,190.6,190.5C342.4,433.1,427.7,347.8,427.7,242.5
		"/>
</g>
</svg>
